<svg width="30" height="26" viewBox="0 0 30 26" fill="none" xmlns="http://www.w3.org/2000/svg">
<path d="M0.445364 8.84366C0.841516 8.34667 1.43583 8.06155 2.07603 8.06155H7.85361L10.9866 0.887741C11.1808 0.442956 11.6989 0.239694 12.1437 0.43405C12.5886 0.628288 12.7917 1.14643 12.5974 1.59128L9.77173 8.06161H20.2283L17.4026 1.59128C17.2083 1.14643 17.4114 0.628346 17.8563 0.43405C18.301 0.239694 18.8192 0.442839 19.0134 0.887741L22.1464 8.06161H27.924C28.5642 8.06161 29.1585 8.34667 29.5546 8.84372C29.9435 9.33169 30.087 9.95899 29.9483 10.565L26.8629 24.0415C26.6475 24.9825 25.8151 25.6397 24.8386 25.6397H5.1614C4.18493 25.6397 3.35249 24.9825 3.13704 24.0415L0.051672 10.5649C-0.087019 9.95893 0.0564785 9.33163 0.445364 8.84366ZM5.1614 23.8819H24.8386C24.9878 23.8819 25.1186 23.784 25.1494 23.6491L28.2348 10.1727C28.259 10.0669 28.2184 9.98735 28.18 9.93924C28.1443 9.89448 28.0636 9.81942 27.924 9.81942H22.914L23.1442 10.3466C23.3385 10.7914 23.1354 11.3095 22.6905 11.5038C22.5761 11.5539 22.4568 11.5775 22.3393 11.5775C22.0005 11.5775 21.6776 11.3805 21.5334 11.0502L20.9959 9.81954H9.00398L8.4665 11.0502C8.32224 11.3805 7.99939 11.5775 7.6606 11.5775C7.54318 11.5775 7.42382 11.5539 7.30933 11.5038C6.86449 11.3096 6.66134 10.7914 6.85564 10.3466L7.08585 9.81942H2.07591C1.93622 9.81942 1.85554 9.89448 1.81991 9.93924C1.78154 9.98741 1.74087 10.067 1.76507 10.1726L4.85044 23.6492C4.88138 23.784 5.01216 23.8819 5.1614 23.8819Z" fill="#EEEEEE"/>
</svg>
